<?xml version="1.0" standalone="no"?>
<!DOCTYPE svg PUBLIC "-//W3C//DTD SVG 20010904//EN"
 "http://www.w3.org/TR/2001/REC-SVG-20010904/DTD/svg10.dtd">
<svg version="1.0" xmlns="http://www.w3.org/2000/svg"
 width="1596.000000pt" height="373.000000pt" viewBox="0 0 1596.000000 373.000000"
 preserveAspectRatio="xMidYMid meet">
<g transform="translate(0.000000,373.000000) scale(0.100000,-0.100000)"
fill="#000000" stroke="none">
<path d="M655 3346 l-25 -25 0 -230 0 -230 -224 -3 c-204 -3 -226 -5 -245 -22
l-21 -19 2 -1116 3 -1116 21 -46 c44 -93 121 -157 217 -179 29 -6 641 -10
1733 -10 l1688 -1 63 31 c74 37 125 92 153 167 20 54 20 71 18 1418 -3 1294
-4 1365 -21 1382 -17 17 -99 18 -1678 21 l-1660 2 -24 -24z m3235 -1435 l0
-1308 -22 -33 c-13 -18 -34 -42 -48 -52 -24 -18 -81 -18 -1554 -18 -841 0
-1531 2 -1533 4 -3 2 7 27 21 55 l26 50 0 1306 0 1305 1555 0 1555 0 0 -1309z
m-3262 -243 l-3 -1043 -23 -42 c-27 -51 -82 -83 -142 -83 -93 0 -154 56 -170
156 -6 35 -10 467 -10 1057 l0 997 175 0 176 0 -3 -1042z"/>
<path d="M1034 2996 c-17 -8 -34 -21 -38 -31 -3 -9 -6 -160 -6 -334 0 -307 1
-319 21 -345 l20 -26 1293 0 1293 0 21 23 c22 23 22 28 22 349 0 306 -1 327
-19 349 l-19 24 -1279 2 c-1058 2 -1283 0 -1309 -11z m2466 -361 l0 -225
-1180 0 -1180 0 0 225 0 225 1180 0 1180 0 0 -225z"/>
<path d="M1011 2004 c-21 -26 -21 -37 -21 -474 0 -437 0 -448 21 -474 l20 -26
665 0 c651 0 664 0 684 20 19 19 20 33 20 474 0 443 0 454 -21 480 l-20 26
-664 0 -664 0 -20 -26z m1239 -479 l0 -355 -555 0 -555 0 0 355 0 355 555 0
555 0 0 -355z"/>
<path d="M2492 2013 c-34 -29 -37 -66 -9 -99 l25 -29 557 0 557 0 19 24 c26
32 24 73 -4 99 l-23 22 -551 0 c-510 0 -552 -1 -571 -17z"/>
<path d="M2492 1593 c-34 -29 -37 -66 -9 -99 l25 -29 557 0 557 0 19 24 c26
32 24 73 -4 99 l-23 22 -551 0 c-510 0 -552 -1 -571 -17z"/>
<path d="M2480 1143 c-23 -30 -21 -65 7 -95 15 -17 55 -18 575 -18 545 0 558
0 578 20 11 11 20 33 20 50 0 17 -9 39 -20 50 -20 20 -33 20 -579 20 l-560 0
-21 -27z"/>
<path d="M1015 835 c-14 -13 -25 -36 -25 -50 0 -14 11 -37 25 -50 l24 -25
1284 0 c1284 0 1284 0 1311 21 19 15 26 30 26 54 0 24 -7 39 -26 54 -27 21
-27 21 -1311 21 l-1284 0 -24 -25z"/>
</g>
<text x="450" y="170" font-size="200" fill="black" font-weight="bold">ВАЖЛИВО</text>
<text x="450" y="344" font-size="200" fill="black" font-weight="bold">НОВИНИ</text>
</svg>