<?xml version="1.0" standalone="no"?>
<!DOCTYPE svg PUBLIC "-//W3C//DTD SVG 20010904//EN"
 "http://www.w3.org/TR/2001/REC-SVG-20010904/DTD/svg10.dtd">
<svg version="1.0" xmlns="http://www.w3.org/2000/svg"
 width="1596.000000pt" height="373.000000pt" viewBox="0 0 1596.000000 373.000000"
 preserveAspectRatio="xMidYMid meet">
<metadata>
Created by potrace 1.16, written by Peter Selinger 2001-2019
</metadata>
<g transform="translate(0.000000,373.000000) scale(0.100000,-0.100000)"
fill="#000000" stroke="none">
<path d="M14894 3445 c-104 -18 -176 -46 -253 -95 -216 -140 -334 -361 -333
-625 0 -133 24 -240 77 -350 103 -211 267 -337 502 -385 189 -38 369 -17 530
60 68 33 103 59 168 123 94 94 144 173 188 302 30 86 32 97 32 250 0 151 -2
165 -29 245 -41 121 -88 194 -181 287 -94 92 -201 152 -321 178 -102 23 -284
27 -380 10z m276 -72 c74 -24 139 -86 183 -175 50 -102 65 -170 79 -345 25
-318 -26 -581 -138 -711 -58 -69 -113 -95 -208 -100 -45 -2 -100 1 -123 7 -90
24 -179 123 -222 245 -68 194 -79 529 -25 756 37 153 131 283 235 322 58 22
153 22 219 1z"/>
<path d="M6597 3418 c-8 -18 -44 -98 -80 -178 -36 -80 -152 -338 -257 -575
-105 -236 -210 -460 -231 -498 -41 -68 -88 -109 -141 -122 -18 -5 -28 -14 -28
-26 0 -18 11 -19 235 -19 228 0 235 1 235 20 0 16 -7 20 -32 20 -60 1 -113 18
-137 46 -33 39 -25 104 26 224 l41 95 253 0 254 0 53 -125 c65 -151 70 -177
45 -209 -15 -19 -33 -25 -84 -30 -50 -5 -65 -10 -67 -23 -3 -17 18 -18 343
-18 322 0 346 1 343 17 -2 11 -18 21 -41 26 -73 17 -110 75 -237 367 -40 91
-96 219 -125 285 -60 137 -225 512 -288 657 -23 54 -48 98 -54 98 -7 0 -19
-15 -26 -32z m-93 -480 c7 -18 52 -123 100 -232 47 -110 86 -201 86 -203 0 -1
-92 -3 -205 -3 -113 0 -205 4 -205 8 0 13 200 462 206 462 2 0 10 -15 18 -32z"/>
<path d="M7542 3415 c-83 -42 -129 -139 -103 -217 27 -81 117 -120 193 -84 39
19 55 46 69 119 5 28 14 56 20 64 20 23 59 15 93 -19 33 -34 42 -55 132 -342
28 -89 46 -129 70 -156 l33 -37 -66 -34 c-83 -42 -110 -76 -222 -281 -124
-227 -186 -330 -214 -357 -16 -15 -43 -25 -71 -28 -36 -5 -46 -10 -46 -24 0
-18 12 -19 218 -19 l217 0 155 311 c85 171 165 322 177 335 15 17 33 24 58 24
l35 0 0 -257 c0 -149 -5 -274 -11 -296 -13 -48 -46 -69 -122 -76 -48 -5 -63
-10 -65 -24 -3 -16 17 -17 360 -15 315 3 363 5 363 18 0 11 -17 16 -68 21 -56
5 -72 10 -97 34 l-30 29 0 283 0 283 29 0 c17 0 41 -10 55 -22 14 -13 94 -161
181 -335 l155 -313 221 0 c203 0 220 1 217 17 -2 12 -17 20 -48 25 -65 10
-108 63 -214 259 -179 329 -217 380 -317 421 l-48 20 29 28 c38 35 61 89 110
259 21 75 47 154 55 176 24 57 73 105 107 105 32 0 44 -19 54 -81 14 -88 55
-129 129 -129 183 0 177 281 -8 331 -58 16 -163 6 -213 -19 -44 -22 -104 -83
-128 -131 -25 -48 -53 -128 -86 -251 -34 -127 -71 -203 -112 -233 -18 -13 -49
-21 -97 -25 l-71 -5 0 267 c0 337 1 340 133 354 45 5 62 11 62 22 0 13 -48 15
-362 18 -349 2 -363 2 -363 -16 0 -16 10 -20 62 -25 72 -6 108 -29 125 -78 8
-23 12 -118 12 -286 l1 -253 -50 0 c-54 0 -112 20 -143 48 -32 28 -55 85 -98
234 -50 177 -85 254 -137 306 -59 59 -94 74 -186 79 -73 4 -86 2 -134 -22z"/>
<path d="M4590 3411 c0 -18 6 -21 38 -21 58 0 109 -18 132 -47 20 -25 20 -36
20 -627 0 -527 -2 -604 -16 -624 -22 -31 -51 -44 -114 -51 -42 -5 -56 -10 -58
-24 -4 -18 15 -18 450 -15 391 4 461 7 513 22 150 43 261 121 310 219 21 43
25 65 25 139 0 174 -73 260 -280 329 -52 17 -96 32 -98 34 -2 2 21 11 50 20
141 46 231 122 258 219 18 66 8 160 -24 223 -52 104 -121 159 -245 196 -61 19
-102 21 -513 25 l-448 4 0 -21z m762 -88 c85 -46 128 -131 128 -254 0 -129
-43 -210 -140 -263 -43 -23 -69 -30 -141 -34 l-89 -5 0 296 c0 205 3 296 11
299 6 2 49 0 95 -4 64 -5 97 -14 136 -35z m-13 -647 c128 -46 200 -174 188
-333 -9 -123 -62 -203 -164 -250 -70 -32 -138 -39 -186 -19 -63 26 -67 46 -67
357 l0 272 93 -6 c50 -3 112 -13 136 -21z"/>
<path d="M9900 3412 c0 -16 11 -20 66 -25 79 -8 110 -26 131 -75 13 -32 15
-91 10 -432 -3 -217 -10 -418 -15 -445 -19 -97 -43 -164 -81 -223 -51 -78
-100 -115 -154 -116 -38 -1 -42 1 -53 34 -7 19 -16 53 -19 74 -4 26 -18 51
-40 73 -29 29 -40 33 -83 33 -89 0 -140 -67 -130 -171 13 -127 140 -194 296
-155 158 39 262 161 322 379 27 95 40 322 40 690 l0 287 170 0 170 0 0 -600
c0 -630 -1 -643 -44 -679 -9 -8 -45 -17 -79 -20 -48 -5 -63 -10 -65 -23 -3
-17 19 -18 358 -18 339 0 361 1 358 18 -2 13 -17 19 -57 24 -66 8 -95 22 -112
57 -20 38 -26 1148 -7 1206 17 50 53 75 119 83 38 5 54 11 54 22 0 13 -72 15
-577 18 -558 2 -578 2 -578 -16z"/>
<path d="M11150 3410 c0 -18 7 -20 59 -20 86 0 116 -14 135 -61 14 -34 16
-113 16 -606 0 -398 -3 -577 -12 -604 -17 -58 -38 -72 -121 -78 -58 -5 -72 -9
-75 -23 -3 -17 20 -18 377 -18 374 0 381 0 381 20 0 18 -7 20 -62 20 -104 0
-131 26 -144 131 l-6 54 192 305 c106 168 218 345 249 394 l56 90 3 -430 c2
-275 -1 -442 -7 -465 -17 -56 -42 -72 -124 -78 -58 -5 -72 -9 -75 -23 -3 -17
20 -18 383 -18 363 0 386 1 383 18 -3 14 -17 18 -76 23 -93 7 -118 28 -132
114 -6 34 -10 282 -10 560 0 278 4 526 10 560 14 86 39 107 132 114 56 5 73
10 73 21 0 13 -50 15 -382 18 -378 2 -383 2 -383 -18 0 -18 7 -20 63 -20 107
0 147 -43 147 -159 0 -37 -11 -61 -76 -165 -42 -67 -149 -236 -236 -376 -88
-140 -166 -262 -174 -270 -12 -12 -14 47 -13 415 0 303 4 442 13 470 17 57 62
85 137 85 52 0 59 2 59 20 0 20 -7 20 -380 20 -373 0 -380 0 -380 -20z"/>
<path d="M12830 3412 c0 -16 9 -20 63 -24 74 -6 111 -27 126 -70 7 -21 11
-223 11 -610 0 -625 0 -621 -53 -649 -12 -7 -49 -15 -82 -18 -47 -5 -61 -10
-63 -24 -4 -18 15 -18 455 -15 440 4 461 5 533 27 145 44 239 113 289 213 27
53 31 72 31 142 -1 169 -94 271 -307 335 -40 12 -73 23 -73 25 0 3 24 12 53
22 203 66 296 204 253 375 -33 130 -136 229 -273 265 -58 15 -132 18 -515 21
-438 4 -448 4 -448 -15z m745 -76 c53 -23 103 -71 128 -126 30 -66 31 -217 1
-280 -48 -101 -128 -149 -261 -158 l-83 -5 0 296 c0 204 3 296 11 299 23 8
166 -11 204 -26z m27 -669 c68 -30 115 -78 147 -147 34 -74 36 -210 4 -281
-49 -109 -148 -174 -265 -174 -60 0 -70 3 -95 28 l-28 27 -3 292 -3 291 95 -6
c71 -4 109 -12 148 -30z"/>
<path d="M655 3346 l-25 -25 0 -230 0 -230 -224 -3 c-204 -3 -226 -5 -245 -22
l-21 -19 2 -1116 3 -1116 21 -46 c44 -93 121 -157 217 -179 29 -6 641 -10
1733 -10 l1688 -1 63 31 c74 37 125 92 153 167 20 54 20 71 18 1418 -3 1294
-4 1365 -21 1382 -17 17 -99 18 -1678 21 l-1660 2 -24 -24z m3235 -1435 l0
-1308 -22 -33 c-13 -18 -34 -42 -48 -52 -24 -18 -81 -18 -1554 -18 -841 0
-1531 2 -1533 4 -3 2 7 27 21 55 l26 50 0 1306 0 1305 1555 0 1555 0 0 -1309z
m-3262 -243 l-3 -1043 -23 -42 c-27 -51 -82 -83 -142 -83 -93 0 -154 56 -170
156 -6 35 -10 467 -10 1057 l0 997 175 0 176 0 -3 -1042z"/>
<path d="M1034 2996 c-17 -8 -34 -21 -38 -31 -3 -9 -6 -160 -6 -334 0 -307 1
-319 21 -345 l20 -26 1293 0 1293 0 21 23 c22 23 22 28 22 349 0 306 -1 327
-19 349 l-19 24 -1279 2 c-1058 2 -1283 0 -1309 -11z m2466 -361 l0 -225
-1180 0 -1180 0 0 225 0 225 1180 0 1180 0 0 -225z"/>
<path d="M1011 2004 c-21 -26 -21 -37 -21 -474 0 -437 0 -448 21 -474 l20 -26
665 0 c651 0 664 0 684 20 19 19 20 33 20 474 0 443 0 454 -21 480 l-20 26
-664 0 -664 0 -20 -26z m1239 -479 l0 -355 -555 0 -555 0 0 355 0 355 555 0
555 0 0 -355z"/>
<path d="M2492 2013 c-34 -29 -37 -66 -9 -99 l25 -29 557 0 557 0 19 24 c26
32 24 73 -4 99 l-23 22 -551 0 c-510 0 -552 -1 -571 -17z"/>
<path d="M2492 1593 c-34 -29 -37 -66 -9 -99 l25 -29 557 0 557 0 19 24 c26
32 24 73 -4 99 l-23 22 -551 0 c-510 0 -552 -1 -571 -17z"/>
<path d="M2480 1143 c-23 -30 -21 -65 7 -95 15 -17 55 -18 575 -18 545 0 558
0 578 20 11 11 20 33 20 50 0 17 -9 39 -20 50 -20 20 -33 20 -579 20 l-560 0
-21 -27z"/>
<path d="M1015 835 c-14 -13 -25 -36 -25 -50 0 -14 11 -37 25 -50 l24 -25
1284 0 c1284 0 1284 0 1311 21 19 15 26 30 26 54 0 24 -7 39 -26 54 -27 21
-27 21 -1311 21 l-1284 0 -24 -25z"/>
<path d="M6855 1645 c-266 -58 -488 -285 -539 -554 -65 -343 80 -682 354 -825
129 -68 194 -81 390 -81 165 1 179 2 255 29 116 40 180 80 266 165 107 108
182 246 208 386 15 82 13 267 -3 347 -52 242 -245 448 -486 518 -99 29 -340
37 -445 15z m346 -88 c145 -75 212 -241 225 -558 14 -334 -38 -552 -162 -676
-65 -65 -132 -88 -238 -81 -159 11 -257 114 -318 338 -21 79 -23 103 -22 340
0 229 2 263 22 332 44 161 119 268 217 314 40 19 67 24 132 24 72 0 88 -4 144
-33z"/>
<path d="M4592 1613 c2 -14 17 -19 66 -24 54 -5 69 -11 95 -38 l32 -31 0 -598
c0 -562 -1 -600 -18 -626 -23 -35 -73 -56 -132 -56 -38 0 -45 -3 -45 -20 0
-20 7 -20 370 -20 363 0 370 0 370 20 0 17 -7 20 -50 20 -61 0 -121 28 -138
65 -8 18 -12 110 -12 305 l0 280 250 0 250 0 0 -280 c0 -312 -2 -325 -64 -354
-19 -9 -57 -16 -85 -16 -44 0 -51 -3 -51 -20 0 -20 7 -20 370 -20 363 0 370 0
370 20 0 17 -7 20 -45 20 -54 0 -102 19 -130 50 -19 21 -20 38 -23 604 -2 521
-1 585 14 625 20 51 57 71 134 71 43 0 50 3 50 20 0 20 -7 20 -371 20 -347 0
-370 -1 -367 -17 2 -14 17 -19 63 -23 66 -6 96 -19 119 -52 14 -19 16 -64 16
-290 l0 -268 -250 0 -250 0 0 260 c0 329 3 338 135 350 46 4 61 9 63 23 3 16
-20 17 -368 17 -348 0 -371 -1 -368 -17z"/>
<path d="M7932 1613 c2 -14 17 -19 63 -24 75 -8 89 -14 112 -47 17 -25 18 -64
18 -624 0 -590 0 -597 -21 -625 -24 -33 -72 -52 -131 -52 -37 -1 -43 -4 -43
-22 0 -20 0 -20 443 -16 379 3 452 6 512 22 218 54 355 193 355 359 0 164 -99
273 -308 336 -40 12 -72 26 -72 30 0 4 15 11 33 14 102 20 213 100 252 182 74
157 -4 349 -176 432 -92 45 -176 52 -637 52 -379 0 -403 -1 -400 -17z m670
-54 c130 -28 192 -92 218 -227 29 -147 -38 -283 -164 -336 -57 -24 -185 -33
-197 -15 -10 16 -13 548 -3 573 7 19 68 21 146 5z m-4 -663 c126 -19 195 -65
243 -164 20 -40 24 -63 24 -152 0 -89 -3 -112 -23 -151 -49 -100 -146 -159
-261 -159 -70 0 -105 23 -121 78 -15 55 -13 535 2 550 15 15 22 15 136 -2z"/>
<path d="M9352 1613 c3 -15 17 -19 78 -23 41 -3 81 -9 89 -14 39 -25 41 -54
41 -650 0 -512 -2 -580 -17 -617 -20 -50 -57 -69 -138 -69 -48 0 -56 -3 -53
-17 3 -17 30 -18 381 -21 365 -2 377 -2 377 17 0 16 -9 19 -71 23 -65 3 -74 7
-99 35 -21 23 -29 46 -35 90 l-7 60 169 269 c93 148 205 325 249 394 l79 125
3 -438 c3 -491 2 -496 -62 -522 -20 -8 -60 -15 -91 -15 -48 0 -55 -2 -55 -20
0 -20 5 -20 382 -18 355 3 383 4 386 20 3 16 -5 18 -55 18 -68 0 -122 23 -140
60 -10 19 -13 163 -13 613 0 516 2 593 16 622 18 38 55 55 120 55 52 0 74 8
74 26 0 12 -63 14 -386 14 -362 0 -385 -1 -382 -17 3 -15 17 -19 73 -24 39 -3
80 -11 92 -17 26 -14 43 -67 43 -135 0 -46 -12 -68 -242 -433 -133 -211 -245
-384 -250 -384 -13 0 -10 824 3 875 17 67 47 89 129 93 61 4 70 7 70 23 0 18
-14 19 -381 19 -357 0 -380 -1 -377 -17z"/>
<path d="M11032 1613 c3 -14 17 -19 72 -24 61 -5 73 -10 97 -37 39 -43 41 -90
37 -702 -3 -489 -4 -528 -21 -554 -24 -36 -73 -56 -137 -56 -44 0 -51 -3 -48
-17 3 -17 29 -18 373 -18 322 0 370 2 370 15 0 11 -16 17 -60 21 -64 6 -108
28 -128 63 -8 14 -13 111 -15 303 l-4 283 256 0 256 0 0 -272 c0 -240 -2 -277
-18 -308 -21 -44 -72 -70 -134 -70 -41 0 -48 -3 -48 -20 0 -20 7 -20 370 -20
363 0 370 0 370 20 0 17 -7 20 -50 20 -58 0 -99 18 -129 56 -21 26 -21 34 -21
616 0 636 0 630 53 660 12 7 49 15 82 18 46 4 61 9 63 23 3 16 -20 17 -367 17
-364 0 -371 0 -371 -20 0 -17 7 -20 50 -20 28 0 66 -7 86 -15 60 -25 65 -49
62 -338 l-3 -252 -250 0 -250 0 -3 195 c-4 267 2 333 37 372 24 27 36 32 97
37 55 5 69 10 72 24 3 16 -20 17 -373 17 -353 0 -376 -1 -373 -17z"/>
<path d="M12692 1613 c3 -15 17 -19 81 -24 62 -4 82 -9 100 -27 l22 -23 3
-604 c2 -528 0 -609 -13 -635 -20 -40 -48 -53 -125 -59 -49 -5 -65 -10 -65
-21 0 -13 50 -15 378 -18 372 -2 377 -2 377 18 0 18 -7 20 -57 20 -32 0 -69 6
-82 13 -37 18 -61 67 -64 128 l-2 54 244 387 c134 213 248 385 252 382 14 -8
10 -821 -4 -873 -17 -61 -50 -84 -132 -89 -56 -4 -65 -7 -65 -23 0 -18 15 -19
380 -19 373 0 380 0 380 20 0 18 -7 20 -55 20 -77 0 -122 21 -140 64 -22 52
-22 1183 -1 1225 23 44 43 55 119 60 58 5 72 9 75 24 3 16 -20 17 -377 17
-374 0 -381 0 -381 -20 0 -18 7 -20 60 -20 103 0 131 -27 146 -138 l6 -47
-179 -285 c-98 -157 -209 -333 -247 -393 -37 -59 -72 -105 -77 -101 -13 8 -12
791 2 854 6 28 21 63 34 78 20 23 32 27 94 30 61 4 71 7 71 23 0 18 -14 19
-381 19 -357 0 -380 -1 -377 -17z"/>
</g>
</svg>
